# xmcd CD database file
#
# Track frame offsets:
#	150
#	15295
#	31542
#	50881
#	74130
#	95989
#	127152
#	149610
#	170570
#	190095
#	218866
#	237605
#
# Disc length: 3541 seconds
#
# Revision: 0
# Processed by: cddbd v1.5.2PL0 Copyright (c) Steve Scherf et al.
# Submitted via: Feurio! 1.68 - http://www.feurio.com
#
DISCID=bd0dd30c
DTITLE=Josh Smith - 2011 # I'm Gonna Be Ready
DYEAR=2011
DGENRE=
TTITLE0=Fine Young Thing
TTITLE1=Only You
TTITLE2=Goin' Out Tonight
TTITLE3=The Way You Do
TTITLE4=You And Me (Don't Belong Together)
TTITLE5=I'm Gonny Be Ready
TTITLE6=Newtie
TTITLE7=Sober Up Baby
TTITLE8=Where's My Baby
TTITLE9=Ain't Enough
TTITLE10=Already Found
TTITLE11=Dead Wrong
EXTD=
EXTT0=
EXTT1=
EXTT2=
EXTT3=
EXTT4=
EXTT5=
EXTT6=
EXTT7=
EXTT8=
EXTT9=
EXTT10=
EXTT11=
PLAYORDER=
